<?xml version="1.0" encoding="UTF-8"?>
<!DOCTYPE svg PUBLIC "-//W3C//DTD SVG 1.1//EN" "http://www.w3.org/Graphics/SVG/1.1/DTD/svg11.dtd">
<!-- Creator: CorelDRAW 2020 (64-Bit) -->
<svg xmlns="http://www.w3.org/2000/svg" xml:space="preserve" width="88.0181mm" height="22.8425mm" version="1.1" style="shape-rendering:geometricPrecision; text-rendering:geometricPrecision; image-rendering:optimizeQuality; fill-rule:evenodd; clip-rule:evenodd"
viewBox="0 0 1051.31 272.84"
 xmlns:xlink="http://www.w3.org/1999/xlink"
 xmlns:xodm="http://www.corel.com/coreldraw/odm/2003">
 <defs>
  <style type="text/css">
   <![CDATA[
    .fil0 {fill:#FEFEFE}
   ]]>
  </style>
 </defs>
 <g id="图层_x0020_1">
  <metadata id="CorelCorpID_0Corel-Layer"/>
  <path class="fil0" d="M35.82 0l979.68 0c19.7,0 35.82,16.12 35.82,35.82l0 139.05c0,19.7 -16.12,35.82 -35.82,35.82l-919.64 0 0 62.15 -60.05 -62.15c-19.7,0 -35.82,-16.12 -35.82,-35.82l0 -139.05c0,-19.7 16.12,-35.82 35.82,-35.82zm74.21 76.46c8.84,0 15.17,2.02 18.98,6.07 3.82,4.05 5.72,10.63 5.72,19.75l0 50.95 -26.52 0 0 -44.95c0,-2.33 -0.16,-4.21 -0.49,-5.65 -0.33,-1.44 -0.91,-2.54 -1.75,-3.28 -0.84,-0.74 -1.95,-1.26 -3.35,-1.53 -1.4,-0.28 -3.12,-0.42 -5.16,-0.42 -3.44,0 -5.98,0.65 -7.61,1.95 -1.63,1.3 -2.67,2.98 -3.14,5.02l0 48.85 -26.52 0 0 -106.08 26.52 0 0 38.8c1.77,-2.7 4.51,-4.95 8.24,-6.77 3.72,-1.81 8.75,-2.72 15.07,-2.72zm118.14 34.2c0,3.07 -0.09,5.68 -0.28,7.82 -0.19,2.14 -0.37,3.49 -0.56,4.05l-46.34 2.79c0.74,3.26 2.58,5.61 5.51,7.05 2.93,1.44 6.82,2.16 11.66,2.16 2.51,0 5.09,-0.16 7.75,-0.49 2.65,-0.33 5.16,-0.75 7.54,-1.26 2.37,-0.51 4.51,-1.09 6.42,-1.75 1.91,-0.65 3.42,-1.3 4.54,-1.95l0 19.54c-2.33,1.58 -6.3,2.98 -11.93,4.19 -5.63,1.21 -12.17,1.82 -19.61,1.82 -5.96,0 -11.28,-0.58 -15.98,-1.75 -4.7,-1.16 -8.7,-3.21 -12,-6.14 -3.3,-2.93 -5.84,-6.93 -7.61,-12 -1.77,-5.07 -2.65,-11.47 -2.65,-19.19 0,-7.72 0.88,-14.12 2.65,-19.19 1.77,-5.07 4.35,-9.07 7.75,-12 3.4,-2.93 7.54,-4.98 12.42,-6.14 4.89,-1.16 10.45,-1.75 16.68,-1.75 6.7,0 12.24,0.7 16.61,2.09 4.37,1.4 7.86,3.51 10.47,6.35 2.61,2.84 4.42,6.4 5.44,10.68 1.02,4.28 1.53,9.3 1.53,15.07zm-23.45 -5.16c0,-2.88 -0.7,-5.21 -2.09,-6.98 -1.4,-1.77 -4.19,-2.65 -8.38,-2.65 -4.47,0 -7.75,0.74 -9.84,2.23 -2.09,1.49 -3.28,4.56 -3.56,9.21l23.87 -1.81zm68.73 48.57c-5.21,0 -9.49,-0.44 -12.84,-1.33 -3.35,-0.88 -5.98,-2.26 -7.89,-4.12 -1.91,-1.86 -3.23,-4.19 -3.98,-6.98 -0.74,-2.79 -1.12,-6.1 -1.12,-9.91l0 -84.59 26.52 0 0 78.31c0,3.16 0.42,5.3 1.26,6.42 0.84,1.12 2.33,1.68 4.47,1.68 0.46,0 0.88,0 1.26,0 0.37,0 0.93,-0.09 1.68,-0.28l0 19.96c-3.07,0.56 -6.19,0.84 -9.35,0.84zm51.42 0c-5.21,0 -9.49,-0.44 -12.84,-1.33 -3.35,-0.88 -5.98,-2.26 -7.89,-4.12 -1.91,-1.86 -3.23,-4.19 -3.98,-6.98 -0.74,-2.79 -1.12,-6.1 -1.12,-9.91l0 -84.59 26.52 0 0 78.31c0,3.16 0.42,5.3 1.26,6.42 0.84,1.12 2.33,1.68 4.47,1.68 0.46,0 0.88,0 1.26,0 0.37,0 0.93,-0.09 1.68,-0.28l0 19.96c-3.07,0.56 -6.19,0.84 -9.35,0.84zm60.91 0.56c-6.05,0 -11.45,-0.58 -16.19,-1.75 -4.75,-1.16 -8.77,-3.21 -12.07,-6.14 -3.3,-2.93 -5.84,-6.93 -7.61,-12 -1.77,-5.07 -2.65,-11.47 -2.65,-19.19 0,-7.72 0.88,-14.12 2.65,-19.19 1.77,-5.07 4.3,-9.07 7.61,-12 3.3,-2.93 7.33,-4.98 12.07,-6.14 4.75,-1.16 10.14,-1.75 16.19,-1.75 6.05,0 11.45,0.58 16.19,1.75 4.75,1.16 8.77,3.21 12.07,6.14 3.3,2.93 5.84,6.93 7.61,12 1.77,5.07 2.65,11.47 2.65,19.19 0,7.72 -0.88,14.12 -2.65,19.19 -1.77,5.07 -4.3,9.07 -7.61,12 -3.3,2.93 -7.33,4.98 -12.07,6.14 -4.75,1.16 -10.14,1.75 -16.19,1.75zm0 -19.26c2.23,0 4.09,-0.3 5.58,-0.91 1.49,-0.6 2.7,-1.67 3.63,-3.21 0.93,-1.54 1.58,-3.58 1.95,-6.14 0.37,-2.56 0.56,-5.75 0.56,-9.56 0,-3.82 -0.19,-7.03 -0.56,-9.63 -0.37,-2.61 -1.02,-4.67 -1.95,-6.21 -0.93,-1.53 -2.14,-2.63 -3.63,-3.28 -1.49,-0.65 -3.35,-0.98 -5.58,-0.98 -2.23,0 -4.09,0.33 -5.58,0.98 -1.49,0.65 -2.7,1.75 -3.63,3.28 -0.93,1.54 -1.58,3.61 -1.95,6.21 -0.37,2.61 -0.56,5.82 -0.56,9.63 0,3.82 0.19,7 0.56,9.56 0.37,2.56 1.02,4.61 1.95,6.14 0.93,1.53 2.14,2.61 3.63,3.21 1.49,0.61 3.35,0.91 5.58,0.91zm598.08 -79l-3.21 56.53 -22.61 0 -3.21 -56.53 29.03 0zm-14.52 97.71c-3.16,0 -5.68,-0.19 -7.54,-0.56 -1.86,-0.37 -3.28,-1.07 -4.26,-2.09 -0.98,-1.02 -1.61,-2.42 -1.88,-4.19 -0.28,-1.77 -0.42,-4.09 -0.42,-6.98 0,-2.88 0.14,-5.23 0.42,-7.05 0.28,-1.82 0.91,-3.21 1.88,-4.19 0.98,-0.98 2.4,-1.65 4.26,-2.02 1.86,-0.37 4.37,-0.56 7.54,-0.56 3.16,0 5.68,0.19 7.54,0.56 1.86,0.37 3.28,1.05 4.26,2.02 0.98,0.98 1.61,2.37 1.88,4.19 0.28,1.81 0.42,4.16 0.42,7.05 0,2.88 -0.14,5.21 -0.42,6.98 -0.28,1.77 -0.91,3.16 -1.88,4.19 -0.98,1.02 -2.4,1.72 -4.26,2.09 -1.86,0.37 -4.37,0.56 -7.54,0.56zm-420.67 -55.69c2.7,-0.37 5.33,-0.72 7.89,-1.05 2.56,-0.33 4.95,-0.67 7.19,-1.05l0 23.03c-2.05,0.28 -4.35,0.56 -6.91,0.84 -2.56,0.28 -5.28,0.61 -8.17,0.98l0 27.64c0,4.09 -0.3,7.35 -0.91,9.77 -0.6,2.42 -1.7,4.33 -3.28,5.72 -1.58,1.4 -3.77,2.4 -6.56,3 -2.79,0.61 -6.37,1.09 -10.75,1.47l-6.28 0.56 -6.84 -23.31 5.16 -0.56c1.58,-0.19 2.86,-0.42 3.84,-0.7 0.98,-0.28 1.75,-0.7 2.3,-1.26 0.56,-0.56 0.93,-1.3 1.12,-2.23 0.19,-0.93 0.28,-2.14 0.28,-3.63l0 -13.54c-3.54,0.47 -6.86,0.91 -9.98,1.33 -3.12,0.42 -5.84,0.81 -8.17,1.19l-2.09 -23.17c2.98,-0.37 6.17,-0.74 9.56,-1.12 3.4,-0.37 6.96,-0.79 10.68,-1.26l0 -19.26 -15.91 0 0 -21.77 15.91 0 0 -20.66 21.91 0.56 0 20.1 14.24 0 0 21.77 -14.24 0 0 16.61zm84.59 -29.31l-17.03 0 0 75.51c0,4.28 -0.44,7.82 -1.33,10.61 -0.88,2.79 -2.3,5.05 -4.26,6.77 -1.95,1.72 -4.49,3 -7.61,3.84 -3.12,0.84 -6.96,1.49 -11.52,1.95l-9.91 0.98 -6.56 -24.43 8.79 -0.7c3.35,-0.28 5.65,-1.05 6.91,-2.3 1.26,-1.26 1.88,-3.42 1.88,-6.49l0 -65.74 -24.43 0 0 -24.01 65.05 0 0 24.01zm144.52 69.09l0 23.17 -124.93 0 0 -23.17 49.55 0 0 -67.28 -40.34 0 0 -23.17 106.64 0 0 23.17 -40.34 0 0 67.28 49.41 0zm93.16 -78.16c0.84,10.42 2.63,19.82 5.37,28.19 2.75,8.38 6.35,16.03 10.82,22.96 4.47,6.93 9.77,13.31 15.91,19.12 6.14,5.82 13.12,11.38 20.94,16.68l-19.4 20.1c-10.7,-9.58 -19.66,-18.98 -26.87,-28.2 -7.21,-9.21 -12.96,-18.89 -17.24,-29.03 -4.47,10.51 -10.42,20.52 -17.87,30.01 -7.44,9.49 -16.75,18.75 -27.92,27.78l-17.59 -19.96c9.03,-6.89 16.61,-13.54 22.75,-19.96 6.14,-6.42 11.14,-13.24 15,-20.45 3.86,-7.21 6.75,-15.17 8.65,-23.87 1.91,-8.7 3.19,-18.77 3.84,-30.22 0.19,-2.98 0.3,-5.72 0.35,-8.23 0.05,-2.51 0.12,-4.37 0.21,-5.58l23.73 0.56c0,1.58 -0.07,4.28 -0.21,8.1 -0.14,3.82 -0.3,7.82 -0.49,12z"/>
 </g>
</svg>
