<?xml version="1.0" encoding="UTF-8"?>
<!DOCTYPE svg PUBLIC "-//W3C//DTD SVG 1.1//EN" "http://www.w3.org/Graphics/SVG/1.1/DTD/svg11.dtd">
<!-- Creator: CorelDRAW 2020 (64-Bit) -->
<svg xmlns="http://www.w3.org/2000/svg" xml:space="preserve" width="254.392mm" height="50.6427mm" version="1.1" style="shape-rendering:geometricPrecision; text-rendering:geometricPrecision; image-rendering:optimizeQuality; fill-rule:evenodd; clip-rule:evenodd"
viewBox="0 0 5336 1062.26"
 xmlns:xlink="http://www.w3.org/1999/xlink"
 xmlns:xodm="http://www.corel.com/coreldraw/odm/2003">
 <defs>
  <style type="text/css">
   <![CDATA[
    .str0 {stroke:#FEFEFE;stroke-width:15.12;stroke-linecap:round;stroke-linejoin:round;stroke-miterlimit:22.9256}
    .fil7 {fill:none}
    .fil6 {fill:#E61D4C}
    .fil3 {fill:#E62129}
    .fil5 {fill:#00A2E9}
    .fil4 {fill:#1D1819}
    .fil1 {fill:#1D1819}
    .fil0 {fill:#0086E2}
    .fil2 {fill:#FEFEFE;fill-rule:nonzero}
   ]]>
  </style>
    <clipPath id="id0">
     <path d="M224.05 179.02l692.34 3.01c82.57,0.36 115.31,47.33 115.31,107.58l0 0c0,60.25 -36.9,108.53 -113.4,108.53l-694.24 0 0 -219.12z"/>
    </clipPath>
 </defs>
 <g id="图层_x0020_1">
  <metadata id="CorelCorpID_0Corel-Layer"/>
  <g>
   <path class="fil0" d="M1276.94 110.06l3915.9 0c78.74,0 143.16,64.43 143.16,143.16l0 555.81c0,78.73 -64.43,143.16 -143.16,143.16l-3675.89 0 -240.01 0c-78.74,0 -143.16,-64.42 -143.16,-143.16l0 -555.81c0,-78.74 64.42,-143.16 143.16,-143.16z"/>
   <path id="1" class="fil1" d="M1276.94 110.06l3915.9 0c78.74,0 143.16,64.43 143.16,143.16l0 555.81c0,78.73 -64.43,143.16 -143.16,143.16l-3675.89 0 -240.01 0c-78.74,0 -143.16,-64.42 -143.16,-143.16l0 -555.81c0,-78.74 64.42,-143.16 143.16,-143.16zm3915.9 50.53l-3915.9 0c-25.42,0 -48.57,10.44 -65.38,27.25 -16.81,16.81 -27.25,39.96 -27.25,65.38l0 555.81c0,25.42 10.44,48.57 27.25,65.38 16.81,16.81 39.96,27.25 65.38,27.25l240.01 0 3675.89 0c25.42,0 48.56,-10.44 65.38,-27.26 16.81,-16.81 27.26,-39.96 27.26,-65.38l0 -555.81c0,-25.42 -10.44,-48.57 -27.25,-65.38 -16.81,-16.81 -39.96,-27.25 -65.38,-27.25z"/>
  </g>
  <path class="fil2" d="M1640.19 415.68c35.34,0 60.63,8.09 75.88,24.27 15.25,16.18 22.88,42.49 22.88,78.95l0 203.64 -106.01 0 0 -179.65c0,-9.3 -0.65,-16.83 -1.95,-22.6 -1.3,-5.76 -3.63,-10.14 -6.97,-13.11 -3.35,-2.97 -7.81,-5.02 -13.39,-6.14 -5.58,-1.12 -12.46,-1.67 -20.64,-1.67 -13.76,0 -23.9,2.6 -30.41,7.81 -6.51,5.21 -10.69,11.9 -12.55,20.09l0 195.27 -106.01 0 0 -424.02 106.01 0 0 155.1c7.07,-10.79 18.04,-19.81 32.92,-27.06 14.88,-7.25 34.96,-10.88 60.25,-10.88z"/>
  <path id="1" class="fil2" d="M2112.41 552.37c0,12.27 -0.37,22.69 -1.12,31.24 -0.74,8.56 -1.49,13.95 -2.23,16.18l-185.23 11.16c2.97,13.02 10.32,22.41 22.04,28.17 11.72,5.77 27.25,8.65 46.59,8.65 10.04,0 20.37,-0.65 30.96,-1.95 10.6,-1.3 20.64,-2.98 30.13,-5.02 9.48,-2.05 18.04,-4.37 25.66,-6.97 7.62,-2.6 13.67,-5.21 18.13,-7.81l0 78.11c-9.3,6.32 -25.2,11.9 -47.7,16.74 -22.5,4.83 -48.63,7.25 -78.39,7.25 -23.81,0 -45.1,-2.32 -63.88,-6.97 -18.78,-4.65 -34.78,-12.83 -47.98,-24.55 -13.2,-11.72 -23.34,-27.71 -30.41,-47.98 -7.07,-20.27 -10.6,-45.84 -10.6,-76.71 0,-30.87 3.53,-56.44 10.6,-76.71 7.07,-20.27 17.39,-36.26 30.96,-47.98 13.58,-11.72 30.13,-19.9 49.66,-24.55 19.53,-4.65 41.75,-6.97 66.67,-6.97 26.78,0 48.91,2.79 66.39,8.37 17.48,5.58 31.43,14.04 41.84,25.39 10.41,11.34 17.67,25.57 21.76,42.68 4.09,17.11 6.14,37.19 6.14,60.25zm-93.73 -20.64c0,-11.53 -2.79,-20.83 -8.37,-27.9 -5.58,-7.07 -16.74,-10.6 -33.47,-10.6 -17.85,0 -30.97,2.97 -39.33,8.93 -8.37,5.95 -13.11,18.22 -14.23,36.82l95.4 -7.25z"/>
  <path id="2" class="fil2" d="M2293.4 725.89c-20.83,0 -37.94,-1.77 -51.33,-5.3 -13.39,-3.53 -23.9,-9.02 -31.52,-16.46 -7.62,-7.44 -12.93,-16.74 -15.9,-27.9 -2.98,-11.16 -4.46,-24.36 -4.46,-39.61l0 -338.1 106.01 0 0 312.99c0,12.65 1.67,21.2 5.02,25.66 3.35,4.46 9.3,6.7 17.85,6.7 1.86,0 3.53,0 5.02,0 1.49,0 3.72,-0.37 6.7,-1.12l0 79.78c-12.27,2.23 -24.73,3.35 -37.38,3.35z"/>
  <path id="3" class="fil2" d="M2498.94 725.89c-20.83,0 -37.94,-1.77 -51.33,-5.3 -13.39,-3.53 -23.9,-9.02 -31.52,-16.46 -7.62,-7.44 -12.93,-16.74 -15.9,-27.9 -2.98,-11.16 -4.46,-24.36 -4.46,-39.61l0 -338.1 106.01 0 0 312.99c0,12.65 1.67,21.2 5.02,25.66 3.35,4.46 9.3,6.7 17.85,6.7 1.86,0 3.53,0 5.02,0 1.49,0 3.72,-0.37 6.7,-1.12l0 79.78c-12.27,2.23 -24.73,3.35 -37.38,3.35z"/>
  <path id="4" class="fil2" d="M2742.42 728.12c-24.18,0 -45.75,-2.32 -64.72,-6.97 -18.97,-4.65 -35.06,-12.83 -48.26,-24.55 -13.2,-11.72 -23.34,-27.71 -30.41,-47.98 -7.07,-20.27 -10.6,-45.84 -10.6,-76.71 0,-30.87 3.53,-56.44 10.6,-76.71 7.07,-20.27 17.2,-36.26 30.41,-47.98 13.2,-11.72 29.29,-19.9 48.26,-24.55 18.97,-4.65 40.54,-6.97 64.72,-6.97 24.18,0 45.75,2.32 64.72,6.97 18.97,4.65 35.06,12.83 48.26,24.55 13.2,11.72 23.34,27.71 30.41,47.98 7.07,20.27 10.6,45.84 10.6,76.71 0,30.87 -3.53,56.44 -10.6,76.71 -7.07,20.27 -17.2,36.26 -30.41,47.98 -13.2,11.71 -29.29,19.9 -48.26,24.55 -18.97,4.65 -40.54,6.97 -64.72,6.97zm0 -76.99c8.93,0 16.37,-1.21 22.32,-3.63 5.95,-2.42 10.79,-6.7 14.51,-12.83 3.72,-6.14 6.32,-14.32 7.81,-24.55 1.49,-10.23 2.23,-22.97 2.23,-38.22 0,-15.25 -0.74,-28.08 -2.23,-38.5 -1.49,-10.41 -4.09,-18.69 -7.81,-24.83 -3.72,-6.14 -8.56,-10.51 -14.51,-13.11 -5.95,-2.61 -13.39,-3.91 -22.32,-3.91 -8.93,0 -16.37,1.3 -22.32,3.91 -5.95,2.6 -10.79,6.97 -14.5,13.11 -3.72,6.14 -6.32,14.41 -7.81,24.83 -1.49,10.41 -2.23,23.25 -2.23,38.5 0,15.25 0.74,27.99 2.23,38.22 1.49,10.23 4.09,18.41 7.81,24.55 3.72,6.14 8.55,10.41 14.5,12.83 5.95,2.42 13.39,3.63 22.32,3.63z"/>
  <path id="5" class="fil2" d="M5132.99 335.34l-12.83 225.96 -90.38 0 -12.83 -225.96 116.05 0zm-58.02 390.54c-12.65,0 -22.69,-0.74 -30.13,-2.23 -7.44,-1.49 -13.11,-4.28 -17.02,-8.37 -3.91,-4.09 -6.42,-9.67 -7.53,-16.74 -1.12,-7.07 -1.67,-16.37 -1.67,-27.9 0,-11.53 0.56,-20.92 1.67,-28.17 1.12,-7.25 3.63,-12.83 7.53,-16.74 3.91,-3.9 9.58,-6.6 17.02,-8.09 7.44,-1.49 17.48,-2.23 30.13,-2.23 12.65,0 22.69,0.74 30.13,2.23 7.44,1.49 13.11,4.18 17.02,8.09 3.91,3.91 6.42,9.49 7.53,16.74 1.12,7.25 1.67,16.64 1.67,28.17 0,11.53 -0.56,20.83 -1.67,27.9 -1.12,7.07 -3.63,12.65 -7.53,16.74 -3.91,4.09 -9.58,6.88 -17.02,8.37 -7.44,1.49 -17.48,2.23 -30.13,2.23z"/>
  <path id="6" class="fil2" d="M3393.51 503.28c10.79,-1.49 21.29,-2.88 31.52,-4.18 10.23,-1.3 19.81,-2.7 28.73,-4.18l0 92.06c-8.18,1.12 -17.39,2.23 -27.62,3.35 -10.23,1.12 -21.11,2.42 -32.64,3.91l0 110.47c0,16.37 -1.21,29.38 -3.63,39.05 -2.42,9.67 -6.79,17.3 -13.11,22.88 -6.32,5.58 -15.06,9.58 -26.22,12 -11.16,2.42 -25.48,4.37 -42.96,5.86l-25.11 2.23 -27.34 -93.17 20.64 -2.23c6.32,-0.74 11.44,-1.67 15.34,-2.79 3.91,-1.12 6.97,-2.79 9.21,-5.02 2.23,-2.23 3.72,-5.21 4.46,-8.93 0.74,-3.72 1.12,-8.55 1.12,-14.5l0 -54.12c-14.13,1.86 -27.43,3.63 -39.89,5.3 -12.46,1.67 -23.34,3.25 -32.64,4.74l-8.37 -92.62c11.9,-1.49 24.64,-2.98 38.22,-4.46 13.58,-1.49 27.8,-3.16 42.68,-5.02l0 -76.99 -63.6 0 0 -87.04 63.6 0 0 -82.57 87.59 2.23 0 80.34 56.91 0 0 87.04 -56.91 0 0 66.39zm338.1 -117.17l-68.07 0 0 301.84c0,17.11 -1.77,31.24 -5.3,42.4 -3.53,11.16 -9.21,20.18 -17.02,27.06 -7.81,6.88 -17.95,12 -30.41,15.34 -12.46,3.35 -27.8,5.95 -46.03,7.81l-39.61 3.9 -26.22 -97.63 35.15 -2.79c13.39,-1.12 22.59,-4.18 27.62,-9.21 5.02,-5.02 7.53,-13.67 7.53,-25.94l0 -262.78 -97.64 0 0 -95.96 259.99 0 0 95.96z"/>
  <polygon id="7" class="fil2" points="4309.28,662.29 4309.28,754.9 3809.94,754.9 3809.94,662.29 4008,662.29 4008,393.37 3846.76,393.37 3846.76,300.75 4273.01,300.75 4273.01,393.37 4111.78,393.37 4111.78,662.29 "/>
  <path id="8" class="fil2" d="M4681.63 349.85c3.35,41.66 10.51,79.22 21.48,112.7 10.97,33.47 25.39,64.07 43.24,91.78 17.85,27.71 39.05,53.19 63.6,76.43 24.55,23.25 52.44,45.47 83.69,66.67l-77.55 80.34c-42.78,-38.31 -78.57,-75.88 -107.4,-112.7 -28.82,-36.82 -51.79,-75.5 -68.9,-116.05 -17.85,42.03 -41.66,82.01 -71.41,119.95 -29.76,37.94 -66.95,74.95 -111.58,111.03l-70.3 -79.78c36.08,-27.52 66.39,-54.12 90.94,-79.78 24.55,-25.67 44.54,-52.91 59.98,-81.74 15.44,-28.83 26.97,-60.63 34.59,-95.41 7.62,-34.78 12.74,-75.04 15.34,-120.79 0.74,-11.9 1.21,-22.87 1.39,-32.92 0.19,-10.04 0.47,-17.48 0.84,-22.32l94.85 2.23c0,6.32 -0.28,17.11 -0.84,32.36 -0.56,15.25 -1.21,31.24 -1.95,47.98z"/>
  <g>
   <g>
    <path class="fil3" d="M242.32 0l850.56 0c58.22,0 105.85,47.63 105.85,105.85l0 850.56c0,58.22 -47.63,105.85 -105.85,105.85l-850.56 0c-58.22,0 -105.85,-47.63 -105.85,-105.85l0 -850.56c0,-58.22 47.63,-105.85 105.85,-105.85z"/>
    <path id="1" class="fil4" d="M242.32 0l850.56 0c58.22,0 105.85,47.63 105.85,105.85l0 850.56c0,58.22 -47.63,105.85 -105.85,105.85l-850.56 0c-58.22,0 -105.85,-47.63 -105.85,-105.85l0 -850.56c0,-58.22 47.63,-105.85 105.85,-105.85zm850.56 20.16l-850.56 0c-23.54,0 -44.96,9.65 -60.5,25.19 -15.54,15.54 -25.19,36.96 -25.19,60.5l0 850.56c0,23.54 9.65,44.96 25.19,60.5 15.54,15.54 36.96,25.19 60.5,25.19l850.56 0c23.54,0 44.96,-9.65 60.5,-25.19 15.54,-15.54 25.19,-36.96 25.19,-60.5l0 -850.56c0,-23.54 -9.65,-44.96 -25.19,-60.5 -15.54,-15.54 -36.96,-25.19 -60.5,-25.19z"/>
   </g>
   <polygon class="fil4" points="1198.73,179.02 136.47,179.02 136.47,398.14 1198.73,398.14 "/>
   <path class="fil4" d="M224.05 179.02l692.34 3.01c82.57,0.36 115.31,47.33 115.31,107.58l0 0c0,60.25 -36.9,108.53 -113.4,108.53l-694.24 0 0 -219.12z"/>
   <g style="clip-path:url(#id0)">
    <g>
     <g id="_2905130499248">
      <g>
       <rect class="fil5" x="402.96" y="244.51" width="24.97" height="73.29" rx="12.48" ry="12.48"/>
       <rect class="fil5" x="827.81" y="244.51" width="24.97" height="73.29" rx="12.48" ry="12.48"/>
      </g>
      <rect class="fil6" x="614.92" y="347.62" width="25.89" height="9.74" rx="0.59" ry="4.87"/>
     </g>
    </g>
   </g>
   <path class="fil7" d="M224.05 179.02l692.34 3.01c82.57,0.36 115.31,47.33 115.31,107.58l0 0c0,60.25 -36.9,108.53 -113.4,108.53l-694.24 0 0 -219.12z"/>
   <path class="fil2" d="M1068.08 515.16c7.29,0 13.92,2.98 18.72,7.78 4.8,4.8 7.78,11.43 7.78,18.71l0 59.41c0,7.28 -2.98,13.91 -7.78,18.71 -4.8,4.8 -11.43,7.78 -18.71,7.78 -7.29,0 -13.91,-2.98 -18.71,-7.78 -4.8,-4.8 -7.78,-11.43 -7.78,-18.71l0 -59.41c0,-7.28 2.98,-13.91 7.78,-18.71 4.8,-4.8 11.43,-7.78 18.71,-7.78zm0 1.09c-6.99,0 -13.34,2.86 -17.95,7.46 -4.6,4.6 -7.46,10.96 -7.46,17.94l0 59.41c0,6.99 2.86,13.34 7.46,17.94 4.6,4.6 10.96,7.46 17.94,7.46 6.99,0 13.34,-2.86 17.95,-7.46 4.6,-4.6 7.46,-10.96 7.46,-17.94l0 -59.41c0,-6.99 -2.86,-13.34 -7.46,-17.94 -4.6,-4.6 -10.96,-7.46 -17.94,-7.46z"/>
   <path class="fil2" d="M1085.09 565.84l0 2.66 -21.04 0 0 -2.66 9.13 0 0 -15.01 -6.95 0 0 -2.78 6.95 0 0 -11.09 2.92 0.15 0 10.94 7.47 0 0 2.78 -7.47 0 0 15.01 8.98 0zm-19.04 -5.84c-0.3,-0.37 -0.65,-0.78 -1.07,-1.22 -0.42,-0.44 -0.87,-0.89 -1.35,-1.35 -0.48,-0.46 -0.97,-0.9 -1.46,-1.33 -0.49,-0.43 -0.96,-0.82 -1.41,-1.16l0 15.35 -2.7 0 0 -14.38c-1.6,1.85 -3.4,3.58 -5.4,5.21l-1.59 -2.37c2.27,-2 4.25,-3.98 5.94,-5.95 1.69,-1.97 3.12,-4.09 4.31,-6.36l-8.21 0 0 -2.74 5.55 0c-0.1,-0.54 -0.22,-1.11 -0.35,-1.7 -0.14,-0.59 -0.27,-1.16 -0.41,-1.72 -0.14,-0.56 -0.27,-1.07 -0.41,-1.55 -0.14,-0.48 -0.24,-0.87 -0.31,-1.16l2.55 -0.37c0.1,0.3 0.22,0.7 0.35,1.2 0.13,0.51 0.28,1.06 0.43,1.66 0.15,0.6 0.29,1.23 0.42,1.87 0.14,0.64 0.25,1.23 0.35,1.77l3.03 0 0 2.74c-0.91,1.97 -2.03,3.91 -3.36,5.8 0.42,0.3 0.94,0.68 1.55,1.15 0.62,0.47 1.25,0.95 1.89,1.46 0.64,0.51 1.25,1.01 1.83,1.52 0.58,0.51 1.05,0.95 1.42,1.35l-1.59 2.29z"/>
   <path id="1" class="fil2" d="M1084.68 603.02l0 2.74 -29.51 0 0 -29.66 28.62 0 0 2.77 -25.62 0 0 24.14 26.51 0zm-25.81 -3.92c1.82,-1.16 3.62,-2.44 5.38,-3.83 1.76,-1.39 3.47,-2.89 5.12,-4.49 -1.7,-1.65 -3.33,-3.19 -4.88,-4.6 -1.55,-1.42 -2.88,-2.57 -3.99,-3.46l1.96 -2.03c1.16,0.96 2.51,2.14 4.07,3.55 1.55,1.41 3.18,2.91 4.88,4.51 2.64,-2.74 4.9,-5.55 6.8,-8.43l2.4 1.74c-1.03,1.46 -2.15,2.91 -3.35,4.36 -1.2,1.46 -2.47,2.88 -3.83,4.29 1.58,1.5 3.09,2.98 4.53,4.44 1.44,1.46 2.72,2.78 3.83,3.96l-1.89 2.48c-1.13,-1.26 -2.44,-2.66 -3.92,-4.2 -1.48,-1.54 -3.01,-3.09 -4.59,-4.64 -1.7,1.65 -3.44,3.22 -5.21,4.69 -1.77,1.48 -3.59,2.84 -5.43,4.07l-1.89 -2.4z"/>
   <path class="fil2" d="M224.05 716.25l0 -80.75 80.75 0 0 80.75 -80.75 0zm0 -121.13l0 -198.48c79.34,0 580.81,2.38 660.15,2.38 52.14,0 89.01,-9.6 110.93,-29.04 21.85,-19.37 32.72,-46.61 32.72,-81.89 0,-25.36 -6.37,-47.18 -19.27,-65.31 -12.89,-18.13 -29.86,-30.31 -50.86,-35.99 -13.57,-3.67 -38.68,-5.38 -75.09,-5.38 -78.82,0 -579.77,-2.38 -658.59,-2.38l0 -71.4 651.93 2.38c40.38,0.15 71.24,2.14 92.65,5.81 29.87,5.11 55,14.4 75.23,28.33 20.29,13.98 36.55,33.58 48.88,58.65 12.33,25.07 18.42,52.7 18.42,82.88 0,51.57 -16.51,95.28 -49.44,131.05 -32.94,35.77 -92.52,54.05 -178.65,53.69l-578.26 -2.38 0 127.08 -80.75 0z"/>
   <path class="fil2" d="M544.05 715.13c-7.64,-4 -14.75,-8.04 -21.32,-12.11 -6.57,-4.07 -12.76,-8.41 -18.57,-13 -4.89,4.15 -10.39,8.26 -16.5,12.33 -6.11,4.08 -13.07,8.33 -20.86,12.78l-14.9 -23.11c-1.38,3.41 -2.83,7.04 -4.35,10.89 -1.53,3.85 -3.28,7.93 -5.27,12.22l-17.42 -10.44 0 1.78 -62.34 0 0 -69.11c-3.97,5.19 -8.17,10.37 -12.61,15.56l-3.9 -48.67c5.35,-8 10.16,-16.26 14.44,-24.78 4.28,-8.52 7.72,-17 10.32,-25.44l-16.5 0 0 -35.56 73.8 0 0 35.56 -24.52 0c-1.37,4.74 -2.83,9.41 -4.36,14 -1.53,4.59 -3.13,9.04 -4.81,13.33l30.48 0 0 94.67c1.99,-5.33 3.63,-10.7 4.93,-16.11 1.3,-5.41 2.29,-11.52 2.98,-18.33 0.69,-6.81 1.18,-14.63 1.49,-23.45 0.31,-8.81 0.46,-19.22 0.46,-31.22l0 -58.22 45.61 0 0 -19.56 33.69 0.89 0 18.67 40.57 0 0 34.22 -2.06 16.89 -27.73 0 2.29 -18.44 -15.36 0 0 27.78 35.3 0 0 33.56c-2.6,8.74 -5.5,16.67 -8.71,23.78 -3.21,7.11 -7.18,13.93 -11.92,20.45 10.09,6.37 21.7,12 34.84,16.89l-17.19 31.33zm-79.76 -153.78l0 27.78 16.05 0 0 -27.78 -16.05 0zm-64.41 55.56l-11 0 0 54.67 11 0 0 -54.67zm64.18 3.78c0,2.07 -0.04,4.04 -0.11,5.89 -0.08,1.85 -0.12,3.67 -0.12,5.45l22.46 -11.33 -22.23 0zm38.97 25.78c2.75,-3.85 5.08,-7.89 6.99,-12.11 1.91,-4.22 3.55,-8.78 4.93,-13.67l-28.19 0c2.29,4.89 4.77,9.48 7.45,13.78 2.67,4.3 5.62,8.3 8.82,12zm-47.9 36.22c5.2,-2.52 9.93,-5.04 14.21,-7.56 4.28,-2.52 8.18,-5.04 11.69,-7.56 -6.57,-8.3 -12.45,-17.41 -17.65,-27.33 -0.61,8 -1.53,15.3 -2.75,21.89 -1.22,6.59 -3.06,13.45 -5.5,20.56z"/>
   <path id="1" class="fil2" d="M659.71 645.58l0 67.78 -28.42 0 0 -67.78 -13.29 0c-0.3,8.59 -0.8,16.07 -1.49,22.44 -0.69,6.37 -1.6,12.22 -2.75,17.56 -1.15,5.33 -2.63,10.37 -4.47,15.11 -1.83,4.74 -4.05,9.7 -6.65,14.89l-29.8 -12.22c2.59,-4.74 4.85,-9.11 6.76,-13.11 1.91,-4 3.52,-8.18 4.81,-12.56 1.3,-4.37 2.33,-9.07 3.09,-14.11 0.76,-5.04 1.38,-11.04 1.83,-18l-16.73 0 0 -34.67 17.42 0 0 -30 -11.46 0 0 -34.45 19.48 0c-1.07,-2.07 -2.29,-4.37 -3.67,-6.89 -1.38,-2.52 -2.83,-5.04 -4.35,-7.56 -1.53,-2.52 -2.98,-4.93 -4.35,-7.22 -1.38,-2.3 -2.6,-4.33 -3.67,-6.11l25.9 -10c1.38,1.78 2.9,3.85 4.58,6.22 1.68,2.37 3.36,4.85 5.04,7.44 1.68,2.59 3.25,5.07 4.7,7.44 1.45,2.37 2.71,4.44 3.78,6.22l-23.61 10.44 19.94 0c3.21,-6.67 6.27,-13.33 9.17,-20 2.9,-6.67 5.27,-12.59 7.1,-17.78l30.26 10.89c-1.68,3.41 -3.74,7.48 -6.19,12.22 -2.44,4.74 -4.97,9.63 -7.56,14.67l14.21 0 0 34.45 -9.63 0 0 30 12.15 0 0 34.67 -12.15 0zm129.27 11.56c-0.15,3.26 -0.31,6.19 -0.46,8.78 -0.15,2.59 -0.31,5.04 -0.46,7.33 -0.16,2.3 -0.38,4.63 -0.69,7 -0.31,2.37 -0.61,4.96 -0.92,7.78 -0.76,6.07 -1.49,10.81 -2.18,14.22 -0.69,3.41 -1.84,6 -3.44,7.78 -1.6,1.78 -3.9,2.89 -6.88,3.34 -2.98,0.44 -7.22,0.66 -12.72,0.66l-10.54 0c-4.28,0 -7.75,-0.41 -10.43,-1.22 -2.67,-0.82 -4.77,-2.41 -6.3,-4.78 -1.53,-2.37 -2.48,-5.67 -2.87,-9.89 -0.38,-4.22 -0.34,-9.67 0.12,-16.33 0.3,-3.7 0.53,-8 0.69,-12.89 0.15,-4.89 0.38,-10.3 0.69,-16.22l-12.15 6c-1.37,-3.7 -3.05,-8.08 -5.04,-13.11 -1.99,-5.04 -3.97,-9.93 -5.96,-14.67l-3.9 42c1.53,-0.44 3.21,-0.85 5.04,-1.22 1.83,-0.37 3.67,-0.78 5.5,-1.22 1.84,-0.44 3.56,-0.82 5.16,-1.11 1.6,-0.3 2.87,-0.59 3.78,-0.89l-0.23 34c-2.9,0.74 -6.61,1.7 -11.12,2.89 -4.51,1.19 -9.05,2.45 -13.64,3.78 -1.68,0.44 -3.55,0.96 -5.62,1.55 -2.06,0.59 -4.13,1.22 -6.19,1.89 -2.06,0.67 -4.01,1.33 -5.85,2 -1.83,0.67 -3.28,1.22 -4.35,1.67l-12.83 -29.33c1.68,-1.33 3.13,-2.7 4.35,-4.11 1.22,-1.41 2.22,-3.04 2.98,-4.89 0.77,-1.85 1.41,-4 1.95,-6.44 0.53,-2.45 0.96,-5.45 1.26,-9l9.85 -110.67 -9.85 0 0 -34.45 105.43 0 0 34.45 -64.41 0 -1.14 13.78 51.34 0 -4.59 107.11c-0.15,2.67 0.04,4.41 0.57,5.22 0.53,0.81 1.41,1.22 2.64,1.22l2.75 0c0.16,0 0.38,-0.04 0.69,-0.11 0.31,-0.08 0.57,-0.33 0.8,-0.78 0.23,-0.44 0.46,-1.15 0.69,-2.11 0.23,-0.96 0.5,-2.41 0.8,-4.33 0.3,-2.52 0.53,-4.7 0.69,-6.55 0.15,-1.85 0.3,-3.59 0.46,-5.22 0.16,-1.63 0.27,-3.18 0.34,-4.67 0.08,-1.48 0.19,-3.11 0.34,-4.89l15.82 6.67zm-157.69 -46.22l0 -30 -12.61 0 0 23.11 0 6.89 12.61 0zm91.45 2c1.68,2.67 3.44,5.85 5.27,9.56 1.83,3.7 3.59,7.48 5.27,11.34l1.38 -35.34 -22.23 0 -1.83 19.78 12.15 -5.33z"/>
   <path id="2" class="fil2" d="M1010.07 634.46l-82.74 0 0 47.34c0,5.78 -0.57,10.56 -1.72,14.33 -1.14,3.78 -3.17,6.85 -6.07,9.22 -2.9,2.37 -6.72,4.15 -11.46,5.33 -4.74,1.19 -10.62,2.07 -17.65,2.67l-23.15 2 -12.38 -37.56 19.94 -1.33c5.35,-0.3 9.17,-1.33 11.46,-3.11 2.29,-1.78 3.44,-4.96 3.44,-9.56l0 -29.33 -85.72 0 0 -36 85.72 0 0 -18.89c1.22,-0.59 3.63,-1.96 7.22,-4.11 3.59,-2.15 7.68,-4.63 12.26,-7.44 4.59,-2.81 9.28,-5.7 14.1,-8.67 4.81,-2.96 9.05,-5.63 12.72,-8l-112.54 0 0 -35.78 171.21 0 0 37.56c-5.04,3.41 -10.5,7 -16.39,10.78 -5.88,3.78 -11.8,7.48 -17.76,11.11 -5.96,3.63 -11.8,7.18 -17.53,10.67 -5.73,3.48 -10.96,6.55 -15.7,9.22l0 3.56 82.74 0 0 36z"/>
   <g>
    <path class="fil3" d="M1270.06 70.69c40.3,4.78 57.2,141.71 37.75,305.84 -19.45,164.14 -67.89,293.32 -108.19,288.55l-0.89 -486.06c21.65,-68.49 47.87,-111.11 71.33,-108.33z"/>
    <path id="1" class="fil4" d="M1272.42 50.74c30.59,3.63 50.86,45.64 58.88,110.63 7.03,56.97 6.43,133.98 -3.47,217.53 -9.9,83.55 -27.31,158.56 -47.47,212.31 -23,61.36 -52.53,97.51 -83.11,93.89l-17.74 -2.1 -0.03 -17.93 -0.89 -486.06 -0 -2.98 0.95 -3.01c11.57,-36.59 24.61,-66.49 38.1,-86.98 16.37,-24.87 34.96,-37.72 54.79,-35.37l-0.01 0.08zm-2.36 19.94c40.3,4.78 57.2,141.71 37.75,305.84 -19.45,164.14 -67.89,293.32 -108.19,288.55l-0.89 -486.06c21.65,-68.49 47.87,-111.11 71.33,-108.33z"/>
   </g>
   <g>
    <path class="fil3" d="M65.99 992.53c-40.3,-4.78 -57.2,-141.7 -37.75,-305.84 19.45,-164.14 67.89,-293.32 108.19,-288.55l0.89 486.05c-21.65,68.49 -47.87,111.11 -71.33,108.33z"/>
    <path id="1" class="fil4" d="M63.62 1012.47c-30.59,-3.63 -50.86,-45.64 -58.88,-110.63 -7.03,-56.97 -6.43,-133.98 3.47,-217.52l0 -0.04c9.9,-83.54 27.31,-158.55 47.47,-212.29 22.99,-61.31 52.51,-97.42 83.1,-93.8l17.75 2.1 0.03 17.85 0.89 486.05 0.01 2.98 -0.95 3.02c-11.57,36.59 -24.61,66.5 -38.1,86.98 -16.37,24.87 -34.96,37.72 -54.79,35.37l0.01 -0.08zm2.36 -19.94c-40.3,-4.78 -57.2,-141.7 -37.75,-305.84 19.45,-164.14 67.89,-293.32 108.19,-288.55l0.89 486.05c-21.65,68.49 -47.87,111.11 -71.33,108.33z"/>
   </g>
   <path class="fil2" d="M1267.82 101.25c-2.95,1.97 -6.94,1.19 -8.91,-1.76 -1.97,-2.95 -1.19,-6.94 1.76,-8.91 1.84,-1.24 3.77,-2.01 5.79,-2.33 6.57,-1.03 12.47,2.76 17.39,11.09 3.79,6.42 7.28,16.02 10.26,28.58 8.11,34.25 11.15,90.09 7.94,167.16 -0.33,8.44 -0.33,8.45 0,0 0.43,-10.36 -10.09,-210.05 -34.22,-193.83z"/>
   <path class="fil7 str0" d="M1154.31 132.21c4.55,-77.21 -24.23,-95.43 -111.52,-94.03"/>
  </g>
 </g>
</svg>
