<?xml version="1.0" encoding="UTF-8"?>
<!DOCTYPE svg PUBLIC "-//W3C//DTD SVG 1.1//EN" "http://www.w3.org/Graphics/SVG/1.1/DTD/svg11.dtd">
<!-- Creator: CorelDRAW 2020 (64-Bit) -->
<svg xmlns="http://www.w3.org/2000/svg" xml:space="preserve" width="19.0622mm" height="19.0622mm" version="1.1" style="shape-rendering:geometricPrecision; text-rendering:geometricPrecision; image-rendering:optimizeQuality; fill-rule:evenodd; clip-rule:evenodd"
viewBox="0 0 5459739 5459739"
 xmlns:xlink="http://www.w3.org/1999/xlink"
 xmlns:xodm="http://www.corel.com/coreldraw/odm/2003">
 <defs>
  <style type="text/css">
   <![CDATA[
    .str0 {stroke:#332C2B;stroke-width:404163;stroke-linecap:round;stroke-linejoin:round;stroke-miterlimit:22.9256}
    .fil1 {fill:none}
    .fil0 {fill:#332C2B}
   ]]>
  </style>
 </defs>
 <g id="图层_x0020_1">
  <metadata id="CorelCorpID_0Corel-Layer"/>
  <path class="fil0" d="M2729869 0c1507671,0 2729869,1222199 2729869,2729869 0,1507671 -1222199,2729869 -2729869,2729869 -1507671,0 -2729869,-1222199 -2729869,-2729869 0,-1507671 1222199,-2729869 2729869,-2729869zm0 459442c1253934,0 2270428,1016494 2270428,2270428 0,1253934 -1016494,2270428 -2270428,2270428 -1253934,0 -2270428,-1016494 -2270428,-2270428 0,-1253934 1016494,-2270428 2270428,-2270428z"/>
  <g>
   <path class="fil1 str0" d="M1612098 3699563c680412,786759 1799329,626194 2235542,-33625"/>
  </g>
  <g>
   <circle class="fil0" cx="1824076" cy="2157350" r="402588"/>
   <rect class="fil0" x="3233076" y="1942924" width="805176" height="426274" rx="213152" ry="213152"/>
  </g>
 </g>
</svg>
